<svg xmlns="http://www.w3.org/2000/svg" viewBox="0 0 1284 1831">
  <g fill="black" fill-rule="evenodd">
  <path d="M 168 1342 L 176 1349 L 251 1300 L 256 1298 L 260 1302 L 432 1130 L 372 1101 L 216 1256 L 216 1258 L 219 1262 L 179 1323 Z" />
  <path d="M 339 1038 L 339 1052 L 341 1057 L 348 1063 L 362 1070 L 369 1075 L 372 1075 L 466 1120 L 474 1125 L 492 1132 L 545 1150 L 575 1158 L 592 1161 L 618 1161 L 643 1156 L 696 1139 L 731 1126 L 786 1102 L 833 1078 L 863 1060 L 870 1053 L 871 1050 L 871 1038 L 868 1016 L 855 951 L 848 929 L 841 928 L 783 949 L 676 994 L 611 1017 L 599 1017 L 563 1005 L 554 1000 L 491 977 L 478 971 L 465 967 L 439 956 L 365 928 L 361 929 L 356 944 L 352 967 L 346 991 Z" />
  <path d="M 149 812 L 149 817 L 154 822 L 158 824 L 166 826 L 216 847 L 229 851 L 234 854 L 247 858 L 280 872 L 288 874 L 301 880 L 335 892 L 340 895 L 356 900 L 364 904 L 379 908 L 434 930 L 442 932 L 476 946 L 510 958 L 520 963 L 593 990 L 603 995 L 611 994 L 616 991 L 629 987 L 668 971 L 676 969 L 686 964 L 694 962 L 707 956 L 720 952 L 725 949 L 889 887 L 894 884 L 907 880 L 941 866 L 944 867 L 943 996 L 937 999 L 931 1005 L 928 1011 L 926 1020 L 929 1035 L 940 1047 L 941 1051 L 934 1068 L 926 1098 L 926 1103 L 924 1108 L 920 1135 L 918 1166 L 921 1173 L 927 1179 L 944 1187 L 967 1187 L 981 1181 L 992 1170 L 993 1167 L 993 1153 L 986 1104 L 978 1072 L 969 1050 L 969 1048 L 976 1042 L 982 1033 L 984 1027 L 984 1014 L 980 1005 L 972 997 L 967 995 L 966 859 L 971 854 L 1056 822 L 1059 819 L 1058 809 L 1027 798 L 1019 794 L 1008 791 L 995 785 L 984 782 L 952 769 L 941 766 L 909 753 L 898 750 L 866 737 L 855 734 L 846 729 L 782 705 L 769 699 L 764 700 L 737 689 L 726 686 L 713 680 L 702 677 L 694 673 L 616 645 L 609 641 L 600 641 L 598 643 L 563 655 L 507 677 L 496 680 L 464 693 L 453 696 L 445 700 L 367 728 L 351 735 L 340 738 L 308 751 L 297 754 L 265 767 L 254 770 L 222 783 L 211 786 L 179 799 L 152 808 Z" />
  <path d="M 1025 501 L 1021 497 L 1014 495 L 1011 492 L 973 501 L 947 510 L 909 528 L 870 554 L 870 557 L 872 561 L 873 568 L 887 569 L 895 571 L 786 681 L 865 712 L 971 606 L 987 587 L 1009 556 L 1022 531 L 1027 514 L 1027 506 Z" />
  </g>
</svg>